<svg xmlns="http://www.w3.org/2000/svg" width="30mm" height="6mm" viewBox="0 0 3000 600" shape-rendering="geometricPrecision" text-rendering="geometricPrecision" image-rendering="optimizeQuality" fill-rule="evenodd" clip-rule="evenodd"><path d="M182 25l-12 12-6 8c-28 37-60 68-94 93-10 7-19 12-25 16s-14 7-24 10-14 5-14 7 7 10 22 26c11 12 19 18 23 20s8 1 11-3c4-5 11-11 23-21 12-9 19-14 20-14s2 2 4 4c1 2 2 18 3 47 1 30 2 57 2 82 0 36-1 64-4 83-4 34-9 58-12 72-3 15-7 25-11 32-4 6-8 13-12 21s-6 12-5 13c1 0 7 0 19-1s28-2 49-2h29v-20c0-17-2-41-7-72-1-12-2-38-2-79s0-75-1-104c-2-32-2-59-2-83v-32c0-4 0-6 2-6 7-3 19-15 38-34 19-20 28-32 27-34-1-3-7-11-17-25-11-14-16-22-17-23-1 0-4 2-7 7zm152 1c-19 2-28 4-28 5 0 2 2 6 7 14 8 16 12 36 13 59v17c0 2 0 4-1 8l-6 5-17-2c-12 0-25-1-38-4s-20-4-21-4 3 9 11 29 13 30 14 31 10 1 25-1c16-1 26-2 30-2h5l-2 46h-33c-29-2-52-5-68-9l-14-5v161h7c3 0 13-2 29-5 16-2 31-4 46-6 14-1 22-1 22-1 1 1 0 6-1 17-2 11-4 19-6 25-4 11-12 25-23 42-12 17-23 31-35 43-6 7-14 13-23 18s-17 8-24 8c-7 1-10 2-10 3 1 1 6 4 18 9 11 5 22 10 32 13s21 6 34 8c12 1 19 1 21 0 2-2 8-16 20-42 8-17 14-31 17-42 3-10 9-27 16-51l13-51h61v30c-2 25-4 48-8 71-4 22-9 39-15 50-5 11-18 22-38 31l-13 8c-2 1-2 1 0 2s14 2 37 3 44 3 62 5l28 3c2 0 3-6 2-18-3-69-5-116-7-142l-4-43h42c26 0 39 0 39 1 0 2-1 6-3 15-6 20-13 34-21 42-6 7-7 12-5 14 3 2 13 3 31 1 17-2 26-3 28-4s10-32 23-93l9-29c0-1-5 0-14 1s-32 2-69 1l-55-2v-51h23c26 0 46 3 60 8 6 2 10 2 11 1 2-2 4-12 6-32 2-19 3-40 3-63 2-17 3-31 5-41 2-9 3-16 3-19v-7l-8 1c-5 2-14 4-25 7l-74 19c-1 2-2 1-4-1l2-25c0-14 1-25 3-32 1-7 5-18 9-33 5-10 6-16 5-17s-11 0-29 4l-47 7v2c3 11 4 25 5 42v41c-1 10-2 16-5 17-2 1-10 2-23 2l-20 1V22h-6c-5 0-16 2-34 4zm187 148c1 1 1 8 0 19l-2 17-5 1c-5 2-11 4-21 5-9 2-14 2-17 2l-5-2 2-16c0-12 0-18 1-19 2-1 8-2 19-3 12-2 19-3 22-4 3-2 5-2 6 0zm-96 28c1 14 1 21 0 22 0 0-9 1-26 3h-25v-48h51v23zm-99 92v25l-13 2c-11 0-21-1-31-2h-17v-30c0-11 1-17 2-19 2-2 9-3 21-3h40l-2 27zm99-11c0 10 0 18 1 23v6l-58 7v-50h57v14zm784-258c1-1 3-2 7-3s6 0 6 1c0 2-4 15-12 39-8 24-12 36-14 38h-1c-2 0-6-1-12-2-11-3-26-4-45-4h-26c-6 1-9 2-10 4-2 2-12 11-31 27-18 16-34 30-49 42l-22 17v1c0 1 1 3 4 5 3 3 6 5 8 7l25 19 12 9 13-6c16-5 32-13 47-23 7-4 12-8 18-10l21-15c12-9 18-13 19-13s4 3 8 9c4 9 9 17 15 26 7 10 10 16 9 19-2 2-13 8-35 16-21 9-39 15-53 19l-15 4c-7 2-17 5-28 9-4 1-9 3-14 5s-11 5-16 7c-4 1-12 4-24 9l-18 6c-16 7-24 11-24 12 0 2 8 4 24 6 19 2 50 3 91 3 20 0 38-1 55-1 17-1 26-2 26-3 3-4 1-14-6-31-1-2 0-2 3-2s12-2 26-6c6-2 11-3 15-4 5-1 8-1 10-1 0 0 4 10 9 28 5 16 12 33 19 54 8 17 11 27 10 27 0 0-1 1-1 2-1 0-1 1 0 1 1 2-4 4-17 6-5 1-9 2-14 4-5 1-10 2-14 3-5 1-9 2-11 2l-2-16c-1-7-2-12-3-13 0-1-2-2-4-2-6 0-20 1-42 3s-37 4-45 5c-1 1-1 29 1 84 3 51 4 104v22l-21-1c-12-1-27-3-46-7-18-4-34-8-46-13l-5-1 15-13c14-12 24-22 29-31 4-8 6-22 6-42 0-5 0-19-1-42 0-17-1-30-2-40s-2-16-3-19-4-6-9-8c-6-4-19-6-37-6l-26 1h-15c-10 0-16-1-16-1-2-1-4-7-7-19-4-12-7-26-11-41-2-6-3-9-3-12-1-2 0-4 1-6 3-2 10-4 21-7s24-7 37-12c14-5 21-8 21-9s-3-6-10-14c-7-9-16-19-26-30l-20-24 12-5c7-3 13-7 19-12l22-16c9-7 17-14 24-21s11-11 11-13c0-3-2-5-5-6-2-1-7-2-15-2-13 0-33 2-58 5-30 5-47 7-51 7-1 0-1 0-2-1v-2c-1-1-2-5-3-12-2-7-3-12-4-16-2-15-4-24-6-26v-2c0-1 1-2 4-2h9c9 1 31 0 68-1 36-1 61-2 74-4 16-2 31-3 45-4s38-4 72-9 54-8 61-10zm-53 374c0-1 1-2 1-2 1 0 2 1 3 1 1 2 9 5 23 10 15 5 23 9 27 10 24 6 45 10 61 12l33 5 20 3-7 9c-11 15-21 28-30 39-11 14-21 26-29 33s-13 11-15 10-10-11-24-31c-14-19-27-38-39-56-16-26-24-40-24-43zm-198 5c1 1-1 6-5 16s-9 21-16 33c-6 14-14 28-22 43s-14 25-18 31c0 1-1 1-3 1s-4-1-8-4c-6-3-19-14-40-35-21-20-31-31-29-32 5-2 12-4 21-6 8-2 16-4 22-6 12-2 27-8 46-15 18-8 33-15 44-23l8-3zM1968 86c11-3 20-4 25-4h6v13c-1 7-2 24-2 52v30c2 37 2 105 2 203l1 136-7-1c-20-3-40-5-60-6h-144c-98 0-147-1-147-1l2-19c6-33 8-79 8-137 0-62-2-120-8-175-2-30-6-54-11-74-1-1 1-2 4-2 3-1 10-1 20-1h43c45 0 73-1 86-2 14-1 36-1 65-2 40-2 79-5 117-10zm-38 73h-25c-24 0-67 2-129 5l-29 2c-9 1-14 1-17 1l-18 1v6l-1 30c0 23 0 40 1 51l1 11 68-2c73-1 121-3 142-7l7-2 1-32c0-26 0-42-1-48v-16zm2 159h-6c-4-1-35 0-94 2-58 2-98 3-120 4 0 12 2 46 5 102l2 17 5 2c4 1 20 2 49 2 25 0 51-1 79-2 28 0 47-2 58-3 8-2 13-3 14-6 4-5 7-15 9-31 1-16 2-35 1-57l-2-30zm604-288c0-1 0-2 2-3h41l45 3-5 10c-8 18-12 43-12 75 0 18 0 27 1 27l97-13 23-3c7-1 21-3 41-6s30-4 30-3c1 1-1 9-6 25-8 27-11 32l-5 11h-165v64h20c12 0 23-1 34-3 10-2 23-5 40-9 7-2 13-4 17-4 5-1 8-2 11-3h5l-2 33c0 10 0 18-1 24v9c-3 1-8 1-16 2h-28c-92 0-165 6-221 18-9 2-16 3-21 3-4 0-6-2-8-4 0-1-1-4-2-10-1-5-2-11-3-16-2-10-4-21-7-34l-1-12c0-1 0-1 1-1 2 0 3 0 6 1 2 0 4 1 6 1 38 9 68 13 91 13h23v-20c-2-22-2-34-2-35l-2-17-73 14c-47 9-74 13-80 13-2 0-4 0-5-1s-2-5-4-12c-1-7-4-16-6-29-1-5-3-11-4-19-2-8-3-13-3-16 0-2 0-4 1-4l34 3c30 5 58 7 83 8 10 0 21 0 33-2 12-1 18-2 19-4 1-1 2-6 2-12s-1-12-2-21c-2-11-4-24-6-39-3-15-4-26-5-34zm34 311c2-8 4-12 5-12s9 6 24 20l33 33c2 3 4 5 4 6 0 2 0 3-1 4-3 3-17 13-42 30-26 17-40 26-42 27l-2 1c-1 0-2-3-1-7 0-6 0-9 1-11 1-1 2-4 3-10 2-12 5-29 11-51 1-3 3-13 7-30zm122 12c0-2 1-3 2-5 0-1 1-1 1-1 2 0 5 4 11 12 26 39 39 60 40 64 0 1-1 3-3 5-1 1-4 2-9 4l-24 8c-8 2-20 6-37 13-18 5-27 8-27 8s3-10 11-29c9-19 16-37 23-53 3-7 7-16 12-26zm-311 3c3-3 5-4 7-3 1 0 2 1 1 4-1 2-3 8-4 17-1 17-10 53-26 109-2 9-4 14-8 14-2 0-7-5-15-15l-14-17c-9-10-15-17-18-22-7-7-14-15-19-23 0-1 2-3 5-4 3-2 7-4 11-6 8-3 18-9 30-18 4-3 7-6 11-9 3-3 6-5 9-7 14-8 24-15 30-20zm41 23c1-5 2-8 3-8s3 3 7 9c8 13 23 26 43 38 34 21 75 40 124 55 15 6 27 9 34 10s18 2 32 2h30c30 0 50-1 63-2 12-2 25-5 39-10 33-11 58-26 73-43l7-7c1-1 2-2 3-2 1 1 0 6-2 17s-4 23-8 34c-6 20-14 37-24 51s-21 25-34 31c-5 2-10 4-14 4-4 1-11 1-22 1-15 0-36-1-62-3s-49-5-67-8c-14-2-30-6-48-11s-34-9-45-13l-43-20c-6-3-12-7-20-10-8-4-13-6-16-8-5-1-11-4-18-8l-10-6c-1 0-2 2-3 5-1 4-2 9-2 14-1 8-2 15-5 24-2 9-4 14-7 17 0 1-1 2-3 2s-8-3-18-10c-12-7-18-12-19-13 0-1-1-1-1-2 0-3 2-9 5-19 5-14 9-30 14-47l9-41c4-11 5-18 5-23z" fill="#332c2b" fill-rule="nonzero"/></svg>
