<?xml version="1.0" encoding="utf-8"?>
<!-- Generator: Adobe Illustrator 16.0.0, SVG Export Plug-In . SVG Version: 6.00 Build 0)  -->
<!DOCTYPE svg PUBLIC "-//W3C//DTD SVG 1.1//EN" "http://www.w3.org/Graphics/SVG/1.1/DTD/svg11.dtd">
<svg version="1.1" id="图层_1" xmlns="http://www.w3.org/2000/svg" xmlns:xlink="http://www.w3.org/1999/xlink" x="0px" y="0px"
	 width="90px" height="37px" viewBox="-10 0 90 37" enable-background="new -10 0 90 37" xml:space="preserve">
<path fill="#4D4D4D" d="M8.073,30.221V7.786h3.185v14.399l5.831-5.686h3.934l-6.313,6.049l6.917,7.672h-4.114l-6.255-7.078v7.078
	H8.073L8.073,30.221z"/>
<path fill="#4D4D4D" d="M26.124,18.145c0.365-0.563,0.795-1.038,1.359-1.471c0.562-0.435,1.26-0.651,2.093-0.651
	c0.45,0,0.893,0.053,1.329,0.159c0.435,0.106,0.864,0.261,1.285,0.462l-1.147,2.665c-0.274-0.19-0.57-0.333-0.888-0.427
	c-0.317-0.092-0.674-0.138-1.065-0.138c-1.057,0-1.816,0.417-2.276,1.252c-0.46,0.832-0.691,2.236-0.691,4.203v6.021h-3.187V16.47
	h3.187"/>
<path fill="#4D4D4D" d="M37.727,36.676h-3.272l3.815-7.643l-5.107-12.535h3.523l2.557,7.107c0.146,0.436,0.275,0.875,0.39,1.322
	c0.112,0.447,0.203,0.905,0.271,1.367c0.127-0.48,0.433-1.249,0.908-2.304l0.074-0.173l3.438-7.323h3.447L37.727,36.676z"/>
<path fill="#4D4D4D" d="M61.928,30.221h-3.186v-1.779c-0.57,0.793-1.232,1.381-1.992,1.77c-0.756,0.387-1.625,0.577-2.604,0.577
	c-1.969,0-3.52-0.664-4.647-1.991c-1.129-1.322-1.695-3.14-1.695-5.447c0-2.189,0.578-3.957,1.732-5.305
	c1.154-1.346,2.662-2.019,4.521-2.019c1.136,0,2.104,0.234,2.914,0.703c0.81,0.467,1.396,1.141,1.771,2.02v-2.244h3.186v13.718
	L61.928,30.221L61.928,30.221z M58.83,23.316c0-1.416-0.336-2.521-1.008-3.313c-0.67-0.791-1.605-1.188-2.812-1.188
	c-1.207,0-2.149,0.408-2.844,1.225c-0.688,0.813-1.033,1.946-1.033,3.396c0,1.459,0.332,2.582,1,3.373
	c0.664,0.791,1.604,1.188,2.817,1.188c1.146,0,2.076-0.43,2.795-1.285C58.469,25.846,58.83,24.718,58.83,23.316z"/>
</svg>
