<svg xmlns="http://www.w3.org/2000/svg" width="15mm" height="5mm" viewBox="0 0 1500 500" shape-rendering="geometricPrecision" text-rendering="geometricPrecision" image-rendering="optimizeQuality" fill-rule="evenodd" clip-rule="evenodd"><path d="M83 185c12-22 23-47 32-73 9 0 13-3 14-8L71 88C59 155 34 226 9 271l4 3c12-10 24-23 35-36v183h8c16 0 33-8 33-11V197c7-1 10-3 11-6l-17-6zm180 102h36c-1 33-2 48-5 51-2 2-3 2-8 2s-15 0-23-1v-52zm-122-10c2-16 4-36 5-52h25v52h-30zm62-115h24v53h-24v-53zm86 0v53h-24v-53h24zm-59 115h-29v-52h29v52zm85-18l-19 18h-36v-52h29v18h7c13 0 33-6 33-9v-66c7-1 11-4 13-7l-38-28-18 19h-21v-50c8-1 12-5 12-10l-50-5v65h-24v-49c9-2 12-6 13-11l-50-5v65h-57l4 10h53v53h-10l-43-17c-1 19-4 55-8 77-4 2-9 5-12 7l36 22 13-17h23v7c0 33-8 84-67 124l2 4c94-33 103-95 103-128v-7h23v134h7c19 0 30-9 30-11v-66c9 3 14 7 18 11 3 5 4 17 4 28 16 0 27-4 35-9 14-10 17-30 18-81 6-1 10-3 13-6l-36-28zm152 49c-14 30-46 73-78 99l3 4c44-16 85-45 110-71 8 2 11 0 14-4l-49-28zm135-78c13 9 26 21 38 34-71 4-138 6-182 7 71-21 155-55 195-79 8 2 15 0 17-3l-44-34c-10 10-26 22-45 35-45 2-88 2-116 2 35-9 77-24 100-37 8 2 13 0 15-4l-25-14c43-3 83-7 115-12 12 5 20 5 25 2l-41-41c-57 18-169 41-256 52l1 5c38 0 78-1 117-3-20 17-51 39-75 46-5 1-13 2-13 2l21 45c2-1 5-3 7-6 39-8 75-16 102-22-41 25-89 49-128 60-6 3-17 4-17 4l21 44c3-1 6-3 8-8 33-4 62-9 90-13v85c0 4-2 6-7 6-7 0-38-2-38-2v4c17 3 24 7 28 13 4 5 6 14 7 26 46-3 53-19 53-46v-93c28-4 52-9 72-13 11 13 20 26 25 39 43 23 63-65-66-83l-4 2zm-8 85c28 22 60 57 71 88 45 26 69-66-68-91l-3 3zm266 59V258h140v116H860zm140-238v112H860V136h140zm18-34l-21 24H863l-47-19v313h7c19 0 37-11 37-17v-18h140v32h8c16 0 37-11 38-14V143c7-1 11-4 14-7l-42-34zm144-11c17 18 37 45 45 69 41 25 69-55-42-71l-3 2zm102 226c-14 8-28 16-42 23V206c8-1 12-4 14-7l-34-29-19 19h-48l3 11h44v146c0 8-2 11-17 20l29 44c4-3 9-8 12-15 28-31 49-60 60-75l-2-3zm190 4h-4c-7 23-13 39-18 46-3 3-6 5-12 5-7 1-22 1-40 1h-48c-16 0-19-2-19-10V242h82v29h7c14 0 34-7 35-9V138c8-1 15-5 18-9l-44-33-20 23h-135l3 10h136v103h-77l-45-17v156c0 29 12 36 54 36h50c76 0 94-5 94-23 0-7-3-11-16-16l-1-47z" fill="#332c2b" fill-rule="nonzero"/></svg>